<svg width="340.14" height="223.85" viewBox="0 0 340.14 223.85" xmlns="http://www.w3.org/2000/svg" xmlns:xlink="http://www.w3.org/1999/xlink" xml:space="preserve" overflow="visible"><defs></defs><path d="M338.64 123.05C335.22 139.93 325.71 155.02 312.21 165.67 305.84 170.69 298.69 174.7 291.05 177.45 282.34 180.58 273.27 181.67 264.05 181.87 253.45 182.09 242.75 181.39 232.23 183.11 222.52 184.7 213.59 188.75 205.21 193.79 188.74 203.71 173.9 217.15 154.91 222.16 145.95 224.52 136.6 224.52 127.82 221.42 119.47 218.47 112.11 213.26 105.52 207.42 91.43 194.92 80.49 178.58 63.66 169.38 47.95 160.79 28.86 158.73 16.09 145.16 7.3 135.81 2.74 123.33 1.49 110.67 1.27 109.6 1.07 108.52 0.9 107.43-2.06 88.22 2.57 68.43 10.64 51 18.13 34.82 29.35 19.84 44.64 10.33 59.79 0.89 78.67-2.92 95.94 2.46 111.71 7.37 124.5 18.42 137.78 27.76 144.61 32.56 151.72 37.1 159.51 40.19 168 43.56 177.09 44.89 186.2 44.75 205.19 44.46 223.53 38.6 242.11 35.36 251.18 33.78 260.41 32.76 269.63 33.31 278.05 33.82 286.31 35.75 294.08 39.02 309.23 45.4 322.37 56.69 330.53 71 339.44 86.61 342.19 105.48 338.64 123.05Z" fill="#B7DBE5"/></svg>