<svg width="565.57" height="282.21" viewBox="0 0 565.57 282.21" xmlns="http://www.w3.org/2000/svg" xmlns:xlink="http://www.w3.org/1999/xlink" xml:space="preserve" overflow="visible"><defs></defs><path d="M565.46 83.71C564.12 105.29 551.33 127.12 530.87 135.61 504.81 146.41 477.17 131.74 450.81 130.31 438.1 129.63 426.16 132.6 415.38 139.36 388.59 155.99 372.05 189.32 339.2 195.61 312.05 200.39 286.34 182.57 259.29 187.53 204.48 200.99 201.91 308.7 77.96 276.09 18.58 255.05-7.38 184.23 1.81 125.67 11.16 79.13 49 39.81 94.64 27.42 153.36 11.48 210.14 46.49 268.79 44.86 356.96 42.6 450.71-37.69 534.39 22.07 553.1 36.66 566.96 59.35 565.46 83.71Z" fill="#CACEEB"/></svg>